<svg xmlns="http://www.w3.org/2000/svg" height="100%" width="100%" viewBox="0 0 64 63.99">
  <defs>
    <style>
      .logo-style {
        fill: gray;
      }
    </style>
  </defs>
  <path class="logo-style"
    d="M989.48,889.86a4.63,4.63,0,0,1-.42.32l0,0,.11-.08a5.39,5.39,0,0,0,.56-.5l.11-.12c.15-.16.26-.27.26-.25s.06,0,0,0l0,.06a1.48,1.48,0,0,0,1,.1l0,0h0l.07,0a1.15,1.15,0,0,0,.51-1.34l-.1-.15a.52.52,0,0,0-.1-.11c-.2-.24-.42-.45-.63-.68a5.18,5.18,0,0,1-.53-1.26,7,7,0,0,1-.32-1.41v-.1a.86.86,0,0,0-.08-.68,1.24,1.24,0,0,0-1.07-.43s0,0-.06,0a1.26,1.26,0,0,1,1.11.43l0,.06,0,0a.87.87,0,0,1,0,.55v0a7.23,7.23,0,0,0,.36,1.58,4.84,4.84,0,0,0,.47,1.2l.2.23c.19.21.4.41.57.64l0,.06a1.1,1.1,0,0,1-.53,1.27l-.08,0a1.13,1.13,0,0,0,.53-.55.9.9,0,0,0,.05-.75c0-.07-.1-.14-.15-.21.11.17.05.12-.07,0a1.31,1.31,0,0,1,.17.24.11.11,0,0,1,0,.08.26.26,0,0,1,0,.15.74.74,0,0,0,0-.22.58.58,0,0,0-.11-.15c-.2-.25-.44-.51-.66-.74a2,2,0,0,1-.27-.48,11.51,11.51,0,0,1-.4-1.17.9.9,0,0,1,0,.16h0a5.48,5.48,0,0,0,.6,1.46l0,.06c.21.22.46.47.66.71l.05.07a.56.56,0,0,1,0,.08,1,1,0,0,1-.52,1.15.43.43,0,0,1-.16,0,1.64,1.64,0,0,1-.72-.16l0,0,0,0-.07.09,0,0,0,0,0,0-.11.12s.11-.12.13-.14h0l-.11.09,0,0,0,0h0l-.05.05.06-.05-.17.18-.1.1h0l-.28.25,0,0-.15.12v0h0l-.08.06h0l-.1.08-.21.14-.16.07,0,0s0,0,0,0h0a3.09,3.09,0,0,0,.73-.51l.05-.06,0,0Z"
    transform="translate(-942.46 -852.5)" />
  <path class="logo-style" d="M989.51,889.83l0,0v0Z" transform="translate(-942.46 -852.5)" />
  <path class="logo-style" d="M983.92,892.25h0Z" transform="translate(-942.46 -852.5)" />
  <path class="logo-style" d="M983.73,892.29h0Z" transform="translate(-942.46 -852.5)" />
  <path class="logo-style" d="M988,885.23h0Z" transform="translate(-942.46 -852.5)" />
  <path class="logo-style"
    d="M987.47,890.86h-.38a1.92,1.92,0,0,1-.78-.2l0,0-.19-.11h0l.14.09a2.37,2.37,0,0,0,1.66.15l.3-.11A3,3,0,0,1,987.47,890.86Z"
    transform="translate(-942.46 -852.5)" />
  <path class="logo-style" d="M989.79,889.65a2.81,2.81,0,0,1,.31-.28l-.06,0A3.76,3.76,0,0,1,989.79,889.65Z"
    transform="translate(-942.46 -852.5)" />
  <path class="logo-style" d="M989.48,889.86l0,0,0,0,0,0Z" transform="translate(-942.46 -852.5)" />
  <path class="logo-style"
    d="M988.82,888.11a1,1,0,0,0,.08-.11l0,0a.25.25,0,0,0,0-.07l0,0h0l-.08-.16v0a11.61,11.61,0,0,1-.44-1.2,8.51,8.51,0,0,1-.3-1v0q.09.35.21.69c0-.09,0-.07.06,0a1.23,1.23,0,0,1-.06-.22c.16.46.33,1,.54,1.43a.22.22,0,0,1,0-.08h0l0-.12a7.91,7.91,0,0,1-.66-2h0l0,0H988v0h0s.17,0,.16,0,0,0,0,0l-.12,0h0a.12.12,0,0,1,.09,0s0,.06-.07.08h0l0,0h0a13.59,13.59,0,0,0,.9,2.45h0a2,2,0,0,1-.4.5s0,0,0,0A1.79,1.79,0,0,0,988.82,888.11Z"
    transform="translate(-942.46 -852.5)" />
  <path class="logo-style" d="M987.94,890.65a2.38,2.38,0,0,1-1.06.07h-.06l-.1,0a2.77,2.77,0,0,0,1.56-.13Z"
    transform="translate(-942.46 -852.5)" />
  <path class="logo-style" d="M988,885.23Z" transform="translate(-942.46 -852.5)" />
  <path class="logo-style"
    d="M987.61,885.45a2,2,0,0,1,.31-.19l0,0h0a.82.82,0,0,0-.19.09h0l0,0,.21-.11h0l-.11.05h0l0,0,0,0h0l0,0h0l0,0-.07.07-.06,0h0Z"
    transform="translate(-942.46 -852.5)" />
  <path class="logo-style" d="M983.78,892.31l0,0h0l0,0Z" transform="translate(-942.46 -852.5)" />
  <path class="logo-style" d="M981.28,884.4h0Z" transform="translate(-942.46 -852.5)" />
  <path class="logo-style"
    d="M983.08,891c0-.16-.09-.32-.14-.47,0,0,0,0,0,0s0,0,0-.05c.08.31.18.64.27,1,0-.09,0-.16,0-.23Z"
    transform="translate(-942.46 -852.5)" />
  <path class="logo-style"
    d="M976.7,889.4l-.07.18a7.29,7.29,0,0,0-.28.94,2.64,2.64,0,0,1,.13-.42,4.78,4.78,0,0,1,.48-1.2l0-.06a.6.6,0,0,1,.06-.11,4.91,4.91,0,0,0-.25.44Z"
    transform="translate(-942.46 -852.5)" />
  <path class="logo-style"
    d="M981.49,883.42a2.14,2.14,0,0,0-.23.38s0,.07,0,.11a1.3,1.3,0,0,1,.14-.32l.13-.18h0l0,0h0l0,0Z"
    transform="translate(-942.46 -852.5)" />
  <path class="logo-style" d="M981.34,884l.06-.09a.91.91,0,0,1,.13-.26s0,0,0,0A1.79,1.79,0,0,0,981.34,884Z"
    transform="translate(-942.46 -852.5)" />
  <path class="logo-style" d="M981.45,884.12h0l0,0Z" transform="translate(-942.46 -852.5)" />
  <path class="logo-style" d="M981.39,884.43s0,0,0,0Z" transform="translate(-942.46 -852.5)" />
  <path class="logo-style" d="M984.28,878.66h0Z" transform="translate(-942.46 -852.5)" />
  <path class="logo-style" d="M983.4,891.66v0Z" transform="translate(-942.46 -852.5)" />
  <path class="logo-style" d="M976.35,891.23a.45.45,0,0,1,0-.08h0S976.36,891.2,976.35,891.23Z"
    transform="translate(-942.46 -852.5)" />
  <path class="logo-style" d="M976.18,892.27v0Z" transform="translate(-942.46 -852.5)" />
  <path class="logo-style"
    d="M982.74,890.23v0l0-.12h0l0,.09v.06c.09.32.17.61.25.92,0,0,0,.12.08.18-.08-.23-.14-.47-.2-.69S982.78,890.38,982.74,890.23Z"
    transform="translate(-942.46 -852.5)" />
  <path class="logo-style"
    d="M977.36,888.19l-.08.06a4.46,4.46,0,0,0-.93,1.76c0,.06,0,.13-.05.2a1.77,1.77,0,0,1,0,.2,4.89,4.89,0,0,1,1-2.12l0,0a1.89,1.89,0,0,1,.2-.2A.2.2,0,0,0,977.36,888.19Z"
    transform="translate(-942.46 -852.5)" />
  <path class="logo-style" d="M976.17,892.26v0s0,0,0-.06v0Z" transform="translate(-942.46 -852.5)" />
  <path class="logo-style" d="M976.3,892.54v-.07S976.3,892.51,976.3,892.54Z" transform="translate(-942.46 -852.5)" />
  <path class="logo-style" d="M981.29,884.39h0Z" transform="translate(-942.46 -852.5)" />
  <path class="logo-style" d="M992.06,872h0l0-.07s0,.06,0,.09v.05S992.06,872.05,992.06,872Z"
    transform="translate(-942.46 -852.5)" />
  <path class="logo-style" d="M992.06,872.05v0l0,.08v0Z" transform="translate(-942.46 -852.5)" />
  <path class="logo-style" d="M966.6,872.28h0l.16.07-.31-.16Z" transform="translate(-942.46 -852.5)" />
  <path class="logo-style" d="M991.88,871.72s0-.06,0-.09Z" transform="translate(-942.46 -852.5)" />
  <path class="logo-style" d="M987.55,885.29Z" transform="translate(-942.46 -852.5)" />
  <path class="logo-style"
    d="M994.91,875.06l-.07,0a1.56,1.56,0,0,1-.41.15,1.23,1.23,0,0,1-.66,0,1.56,1.56,0,0,1-.92-.79,2.54,2.54,0,0,0,.36.5,1.38,1.38,0,0,0,1.63.14h0l.08-.05a.57.57,0,0,0,.13-.08l-.07,0Z"
    transform="translate(-942.46 -852.5)" />
  <path class="logo-style" d="M992.35,873.69h0l0-.13A.93.93,0,0,1,992.35,873.69Z"
    transform="translate(-942.46 -852.5)" />
  <path class="logo-style"
    d="M959.29,882.34c.34,0,.81.08,1.15.1a14.85,14.85,0,0,1-2.89-.44,3.41,3.41,0,0,1-2.68-4,5.42,5.42,0,0,1,2-2.87,6.49,6.49,0,0,0-1.7,2.06,3.4,3.4,0,0,0,2.08,4.71,11,11,0,0,0,2,.44C959.13,882.32,959.18,882.32,959.29,882.34Z"
    transform="translate(-942.46 -852.5)" />
  <path class="logo-style" d="M960.23,872.73l-.12.06Z" transform="translate(-942.46 -852.5)" />
  <path class="logo-style" d="M960,872.82h0Z" transform="translate(-942.46 -852.5)" />
  <path class="logo-style" d="M960.26,872.72l.28-.13-.27.13Z" transform="translate(-942.46 -852.5)" />
  <path class="logo-style" d="M967,872.46h0Z" transform="translate(-942.46 -852.5)" />
  <path class="logo-style" d="M960.58,866.45l-.1,0-.06,0,.24-.07Z" transform="translate(-942.46 -852.5)" />
  <path class="logo-style"
    d="M963.69,882.53h.09c.34,0,.68.08,1,.14-.38-.07-.77-.12-1.15-.16l-.49-.06c-2.12-.16-4.33,0-6.32-.85l-.24-.13a3.18,3.18,0,0,1-1.54-3.72,5.15,5.15,0,0,1,1.37-2.13,4.83,4.83,0,0,0-1.46,2.43,3.29,3.29,0,0,0,2.4,3.78l.32.09a33,33,0,0,0,5.71.57l-.28,0Z"
    transform="translate(-942.46 -852.5)" />
  <path class="logo-style" d="M966.42,872.19l.11.06.17.09.23.11-.32-.16-.06,0Z" transform="translate(-942.46 -852.5)" />
  <path class="logo-style"
    d="M995.48,874.31l-.07.1,0,.07a.36.36,0,0,0-.07.1l0,0a1.53,1.53,0,0,1-.3.27l-.13.08-.08,0a1.22,1.22,0,0,1-1.39-.1,1.54,1.54,0,0,1-.35-.37,1.26,1.26,0,0,0,1.76.48l.1,0,.06,0,.06,0a1.31,1.31,0,0,0,.39-.42l0,0,.08-.13a1.51,1.51,0,0,0,.09-.18l0,.06Z"
    transform="translate(-942.46 -852.5)" />
  <path class="logo-style" d="M989.56,889.65l0,0Z" transform="translate(-942.46 -852.5)" />
  <path class="logo-style"
    d="M987.91,885.06s0,0,0,0l0,0h0l0,0h0s0,0,0,0a0,0,0,0,1,0,0h.14c.06,0,0,0,0,0h0s0-.09,0-.14v0a1,1,0,0,1,0,.18h0a4.82,4.82,0,0,0,.11.52h0a.08.08,0,0,1,0,0h0a7.8,7.8,0,0,0,.43,1.23,11.47,11.47,0,0,1-.43-1.29s0,0,0,0,0-.18,0,0a2.85,2.85,0,0,1-.12-.71.63.63,0,0,0-.36,0l0,0v0S987.93,885,987.91,885.06Zm.44.67s0,0,0,0h0S988.33,885.71,988.35,885.73Z"
    transform="translate(-942.46 -852.5)" />
  <path class="logo-style"
    d="M992.69,887.87a1,1,0,0,1-.25-.42l0-.05c-.09-.38-.19-.74-.29-1.11v0l0-.17v0l0,.13,0,.09c.1.36.19.7.28,1a1.17,1.17,0,0,0,.14.33s0,0,.06.07a.82.82,0,0,0,.32.23h0A.89.89,0,0,1,992.69,887.87Z"
    transform="translate(-942.46 -852.5)" />
  <path class="logo-style"
    d="M989.44,889.66c.08-.08,0,.06-.07.08h0l.07,0,.07-.06.21-.21.14-.13c.11-.08.11-.08.11,0l0,0,.1-.1,0,0h0l-.11,0-.05,0,.05,0,.12,0h0a1.4,1.4,0,0,0,.8.14,1,1,0,0,0,.45-.37h0l0-.07s0,0,0,0a.86.86,0,0,0,.09-.73,7.66,7.66,0,0,0-.8-.91l0,0a3,3,0,0,1-.32-.65,2.55,2.55,0,0,0,.35.7,9.49,9.49,0,0,1,.78.9.75.75,0,0,1,0,.51.78.78,0,0,1-.15.32s0-.08.06-.11a.45.45,0,0,1-.19.21s.06-.08.13-.19a.93.93,0,0,1-.41.35c-.15.07-.47,0-.95-.2-.21.25-.41.46-.59.64l0,0C989.43,889.61,989.48,889.59,989.44,889.66Zm2-.93a.21.21,0,0,1,0-.07s0,0,0,0l0,.07Z"
    transform="translate(-942.46 -852.5)" />
  <path class="logo-style"
    d="M987.11,886.21a2.08,2.08,0,0,1,.34-.48l.08-.1a1.87,1.87,0,0,0-.29.34,2.26,2.26,0,0,0-.16.26h0a.59.59,0,0,1,0,.08A.47.47,0,0,0,987.11,886.21Z"
    transform="translate(-942.46 -852.5)" />
  <path class="logo-style"
    d="M988.77,888.09l.08-.12,0,0,0-.09-.07-.13a12.58,12.58,0,0,1-.84-2.29l-.07,0-.1.06h0l-.05,0-.06,0,.08,0a1.88,1.88,0,0,0-.36.27l-.08.08h0c-.11.15-.2.31-.28.44l-.08.17h0l0,0a1,1,0,0,0,0,.11h0a2.39,2.39,0,0,0-.12.74v0c0,.1,0,.2.06.32,0,0,0-.08,0-.12l0,.12,0,.13c.06.21.15.43.21.63a.66.66,0,0,0,.21.23.48.48,0,0,0,.23.07,1.2,1.2,0,0,0,.6-.23l0,0s0,0,0,0l-.25.16-.09,0-.11,0-.1,0h-.1a.6.6,0,0,1-.19-.06.48.48,0,0,0,.33.07,1.51,1.51,0,0,0,.59-.27A2,2,0,0,0,988.77,888.09Zm-.43.34h0l0,0a2,2,0,0,0,.46-.46l0,0v0l0,0h0l-.06-.14a.75.75,0,0,1,.06.13h0a.43.43,0,0,1,0,.07l0,.06,0,.06a1.73,1.73,0,0,1-.41.4Z"
    transform="translate(-942.46 -852.5)" />
  <path class="logo-style"
    d="M987.47,885.54l-.12.08-.07.09-.19.27s0,0,0,0l0,0a2.75,2.75,0,0,1,.19-.28A2.23,2.23,0,0,1,987.47,885.54Z"
    transform="translate(-942.46 -852.5)" />
  <path class="logo-style" d="M993.65,887.82h0Z" transform="translate(-942.46 -852.5)" />
  <path class="logo-style"
    d="M992.72,887.71a1.12,1.12,0,0,1-.21-.47c0-.16-.1-.35-.14-.51,0,0,0,0,0-.05l0-.08c.06.24.13.48.19.72a.9.9,0,0,0,.55.66A.73.73,0,0,1,992.72,887.71Z"
    transform="translate(-942.46 -852.5)" />
  <path class="logo-style" d="M994.36,887h0a.07.07,0,0,1,0,0A.06.06,0,0,0,994.36,887Z"
    transform="translate(-942.46 -852.5)" />
  <path class="logo-style" d="M994.42,887.22s0,0,0,0v0Z" transform="translate(-942.46 -852.5)" />
  <path class="logo-style" d="M993.62,887.83Z" transform="translate(-942.46 -852.5)" />
  <path class="logo-style" d="M994.41,887.24s0,0,0,0v0A0,0,0,0,1,994.41,887.24Z"
    transform="translate(-942.46 -852.5)" />
  <path class="logo-style" d="M988.75,890.22l-.06,0h0Z" transform="translate(-942.46 -852.5)" />
  <path class="logo-style" d="M981.39,879.22h0Z" transform="translate(-942.46 -852.5)" />
  <path class="logo-style" d="M982.39,878.92l0,0,0,0Z" transform="translate(-942.46 -852.5)" />
  <path class="logo-style" d="M982.41,878.9l0,0,0,0Z" transform="translate(-942.46 -852.5)" />
  <path class="logo-style" d="M971.8,884.25l0,0v0Z" transform="translate(-942.46 -852.5)" />
  <path class="logo-style" d="M982.43,878.67h0a.14.14,0,0,0,0-.06Z" transform="translate(-942.46 -852.5)" />
  <path class="logo-style"
    d="M975.58,883.17c0-.19,0-.44,0-.61a2.65,2.65,0,0,0-.42-.92.64.64,0,0,0-.21-.19s0,0,0,0c.25.11.41.47.52.72a1.41,1.41,0,0,0-.51-.77l0,0a.56.56,0,0,0-.4,0h0l-.14.08,0,0a.73.73,0,0,0-.18.17,2.29,2.29,0,0,0-.21,2s0,.1,0,.11,0,0-.05-.08a2.37,2.37,0,0,1,.11-2,1.16,1.16,0,0,1,.44-.38l.07,0a.74.74,0,0,1,.25,0h0a.58.58,0,0,0-.29.06,1.67,1.67,0,0,0-.82,1.33,3.09,3.09,0,0,0,.06.86s0,0,0,0a1.74,1.74,0,0,1-.1-.61c0,.08,0,.06-.06,0a1.33,1.33,0,0,1,0,.2,2.31,2.31,0,0,1,0-.64,1.7,1.7,0,0,1,.21-.67l-.06,0h0a2.75,2.75,0,0,0-.2,1.1,2.49,2.49,0,0,0,.21,1s0,0,0,0a2.48,2.48,0,0,1-.17-.59h0s0-.06,0,0a3.16,3.16,0,0,1,.06-1.15,3.41,3.41,0,0,0-.1,1.06l0,.11v0s0,0,0,0v0c0,.14,0,.17,0,0a2,2,0,0,0,.39,1h0s0-.07,0-.06,0,0,0,0h0l0,0,0,0-.06-.1a.24.24,0,0,1,0-.08c0-.06,0-.06,0-.06h0s0,0,0,0v0h0l0,0,0,0h0l0,.06s0-.06,0-.07h0a.11.11,0,0,1,0,.05h0v0h0v0l0,.08,0,0h0a.76.76,0,0,0,.08.11h0l.05,0h0l.1.05,0,0h0s0,0,0,0a.76.76,0,0,1-.21-.19h0a.69.69,0,0,0,.11.13s0,0,0,0l0,0a1.56,1.56,0,0,1-.16-.2S974,884,974,884s0,0,0,0l.12.14c0-.08-.08-.23,0-.13l.23.26v0l.07.06,0,0a.62.62,0,0,0,.19.12h.1a2.11,2.11,0,0,0,.38-.12l.13-.09h0l0,0,0,0,0,0h0a1.14,1.14,0,0,0,.32-.51v0a2.48,2.48,0,0,0,0-.29s0,.08,0,.11Zm-2,.16a0,0,0,0,1,0,0s0,0,0,0Zm1.31-1.89c-.28-.09-.57.13-.75.33,0,0,0,0,0,0,.19-.2.48-.42.76-.33C974.9,881.43,974.91,881.44,974.89,881.44Z"
    transform="translate(-942.46 -852.5)" />
  <path class="logo-style" d="M980.61,878.63l0,.06h0l0,.06v0l0,0h0l0-.09h0Z" transform="translate(-942.46 -852.5)" />
  <path class="logo-style" d="M985.82,879.37h0Z" transform="translate(-942.46 -852.5)" />
  <path class="logo-style" d="M974.12,884.23h0Z" transform="translate(-942.46 -852.5)" />
  <path class="logo-style" d="M971.79,884.25v0h0a.06.06,0,0,1,0,0v0Z" transform="translate(-942.46 -852.5)" />
  <path class="logo-style" d="M974.13,884.23h0Z" transform="translate(-942.46 -852.5)" />
  <path class="logo-style" d="M980.59,878.19v0h0v0Z" transform="translate(-942.46 -852.5)" />
  <path class="logo-style" d="M980.65,878.34v0h0Z" transform="translate(-942.46 -852.5)" />
  <path class="logo-style" d="M981.33,879.2h0l0,0Z" transform="translate(-942.46 -852.5)" />
  <path class="logo-style" d="M980.8,878.23v0l0,0h0Z" transform="translate(-942.46 -852.5)" />
  <path class="logo-style" d="M980.54,878.42h0Z" transform="translate(-942.46 -852.5)" />
  <path class="logo-style" d="M980.58,878.21h0Z" transform="translate(-942.46 -852.5)" />
  <path class="logo-style" d="M980.69,878.45h0v0Z" transform="translate(-942.46 -852.5)" />
  <path class="logo-style"
    d="M980.13,879a2.19,2.19,0,0,1,.38-.42v0a2.47,2.47,0,0,0-.42.49l0,0a1.63,1.63,0,0,0-.11.17,1,1,0,0,1,.08-.11Z"
    transform="translate(-942.46 -852.5)" />
  <path class="logo-style"
    d="M980.74,878.67v0a.88.88,0,0,0,0,.15,1.67,1.67,0,0,1,0-.18s0-.1,0-.14h0C980.71,878.58,980.73,878.62,980.74,878.67Z"
    transform="translate(-942.46 -852.5)" />
  <path class="logo-style" d="M980.76,878.26h0Z" transform="translate(-942.46 -852.5)" />
  <path class="logo-style" d="M974.25,884.56Z" transform="translate(-942.46 -852.5)" />
  <path class="logo-style" d="M980.57,878.53v0h0v0Z" transform="translate(-942.46 -852.5)" />
  <path class="logo-style" d="M980.47,878.48h0l-.15.14,0,0-.06.07A3,3,0,0,1,980.47,878.48Z"
    transform="translate(-942.46 -852.5)" />
  <path class="logo-style"
    d="M972,881.33a5.29,5.29,0,0,0-.37,1.29,2.71,2.71,0,0,0,0,.29,4.91,4.91,0,0,1,.42-1.63l0,0,.09-.18-.07.12S972,881.3,972,881.33Z"
    transform="translate(-942.46 -852.5)" />
  <path class="logo-style"
    d="M988.2,877.68a5.81,5.81,0,0,1-1.4,1.17,4.61,4.61,0,0,0,.57-.36,3.66,3.66,0,0,0,1.25-1.51c0,.06,0,0,0-.09a.86.86,0,0,0,0-.16A1.5,1.5,0,0,1,988.2,877.68Z"
    transform="translate(-942.46 -852.5)" />
  <path class="logo-style"
    d="M988.39,876.33a.83.83,0,0,1,.07.13l0,.08,0,.05c.16.78-1.07,1.67-1.63,2.1a6.67,6.67,0,0,0,1.32-1.17,1,1,0,0,0,.28-1,.09.09,0,0,0,0-.06l0-.06-.08-.1,0,0a.38.38,0,0,0-.18-.13h0a.42.42,0,0,1,.14.09A.36.36,0,0,1,988.39,876.33Z"
    transform="translate(-942.46 -852.5)" />
  <path class="logo-style" d="M975,884.33a.63.63,0,0,1-.42.09h-.08l.1,0h.2a1.45,1.45,0,0,0,.22-.09h0l.06,0H975Z"
    transform="translate(-942.46 -852.5)" />
  <path class="logo-style" d="M986,879.35Z" transform="translate(-942.46 -852.5)" />
  <path class="logo-style"
    d="M971.86,882.14a1.16,1.16,0,0,1,0,.18c0,.22-.07.44-.1.66a2.82,2.82,0,0,1,.07-.31,4.75,4.75,0,0,1,.19-.91s0,0,0,0l0-.08c0,.11-.08.23-.11.34S971.88,882.09,971.86,882.14Z"
    transform="translate(-942.46 -852.5)" />
  <path class="logo-style" d="M971.93,884.42v0S971.92,884.41,971.93,884.42Z" transform="translate(-942.46 -852.5)" />
  <path class="logo-style" d="M971.84,883.49v-.06h0Z" transform="translate(-942.46 -852.5)" />
  <path class="logo-style" d="M984.22,878.67l.13,0h-.05Z" transform="translate(-942.46 -852.5)" />
  <path class="logo-style" d="M983.9,878.89l-.08.05Z" transform="translate(-942.46 -852.5)" />
  <path class="logo-style" d="M985.9,879.36h0Z" transform="translate(-942.46 -852.5)" />
  <path class="logo-style" d="M968.48,872.75h-.3Z" transform="translate(-942.46 -852.5)" />
  <path class="logo-style" d="M974.57,884.54l-.1,0,.1.05h.09a1,1,0,0,0,.25-.06l.05,0a1.07,1.07,0,0,1-.27.06Z"
    transform="translate(-942.46 -852.5)" />
  <path class="logo-style" d="M970.63,872l-.07.06a.36.36,0,0,0,.09-.08Z" transform="translate(-942.46 -852.5)" />
  <path class="logo-style" d="M970.68,872l.09-.08Z" transform="translate(-942.46 -852.5)" />
  <path class="logo-style" d="M974,884.22h0Z" transform="translate(-942.46 -852.5)" />
  <path class="logo-style"
    d="M974.48,852.5c-25.23-.16-40.62,28.5-26.85,49.38a4.5,4.5,0,0,1,.56-.68,1.37,1.37,0,0,1,.17-.17l.09-.08.1-.07c.05,0,.14-.11.19-.15l.16-.1.15-.09a3.49,3.49,0,0,1,1.17-.38h.46l.19,0,.34.11h0l.12.05a3.42,3.42,0,0,1,1.28,1.28,4.58,4.58,0,0,0,3.35,1.75,19,19,0,0,0,4.52,0,14.94,14.94,0,0,1-6-.37,3.93,3.93,0,0,1-2-1.6l-.1-.14-.11-.14c-1.31-1.78-3.63-.88-4.64.74h0c.82-1.29,2.71-2.37,4.09-1.26a2,2,0,0,1,.22.19,1.29,1.29,0,0,1,.16.17l.14.16.14.18.12.18c1.87,3,8.18,2.05,11.14,1.38a6.9,6.9,0,0,0,3.65-2.21c2.11-2.13,2-5.74.57-8.21s-4.71-3.39-7.52-3.61c-3-.27-6.12-.8-8.65-2.54l-.3-.22-.3-.24a8.73,8.73,0,0,1-.75-.74l-.1-.12-.2-.24-.18-.25c-2.81-4.24-.91-9.76,2.41-13.13a18.92,18.92,0,0,1,11.35-6c2.29-.33,5.18-.66,7,1.06l.14.16.17.2c0,.07.11.17,0,0a3.8,3.8,0,0,0-.83-.77L970,866a5.38,5.38,0,0,0-.84-.4l-.22-.07-.34-.1c-2.53-.57-5.73.09-8.19.81a21,21,0,0,0-2.11.83l-.61.29a18.67,18.67,0,0,0-3.64,2.47c-.16.13-.44.38-.59.52a15.92,15.92,0,0,0-4.22,6c0,.06-.09.25-.11.32s-.09.29-.13.44a10,10,0,0,0,0,5.44c0,.15.09.3.14.44l.08.22c.06.12.13.31.2.43a5.51,5.51,0,0,0,.49.85l0,0,.07.09.06.09a.61.61,0,0,0,.07.1c.13.16.31.37.45.52s.23.24.34.33c2.36,2.14,5.66,2.79,8.74,3.14,3.81.2,8.09,1.4,9,5.62a6.59,6.59,0,0,1-1.26,6.22l-.26.28-.28.28a7.39,7.39,0,0,1-1.21.94l0,0-.11.08-.26.15a7.4,7.4,0,0,0,2.28-1.92s.16-.2.21-.26a5.74,5.74,0,0,0,1.12-2.93c0-.07,0-.26,0-.33v-.42c0-.18,0-.44,0-.62-.3-5.15-4.78-6.88-9.31-7.08-4.74-.43-10.5-2.25-10.94-7.8-.74-6,4.59-11.49,9.68-13.88l.63-.28a22.34,22.34,0,0,1,5.33-1.37l-.28,0a19,19,0,0,0-11,5.29l.57-.52c.13-.11.2-.17.18-.14-.21.21-.7.67-1,.94a18.22,18.22,0,0,1,3-2.46c-4.9,3.33-9.28,9.57-6.06,15.48l.24.36c.09.12.17.24.26.35a11.14,11.14,0,0,0,6.41,3.38,12.59,12.59,0,0,1-1.29-.35h0a12,12,0,0,1-3.61-1.66c-3-2-3.66-6.19-2.57-9.48a16.81,16.81,0,0,1,6.11-7.71l.51-.36a19.15,19.15,0,0,1,8-3l.46-.08a11.92,11.92,0,0,1,4.17.07,6.36,6.36,0,0,1,.84.28,4.23,4.23,0,0,1,.69.39,3.53,3.53,0,0,1,.58.51l0,0a3.51,3.51,0,0,1,.42.59l.11.22.12.3a3.45,3.45,0,0,1,.12.43.06.06,0,0,1,0,0l-.07-.26c0-.07-.06-.18-.08-.26l0-.08-.08-.18a2.1,2.1,0,0,0-.13-.26,3.15,3.15,0,0,0-.6-.76l-.07-.07-.15-.12-.15-.12-.17-.11c-2.6-1.52-6.92-.53-9.67.29.14,0,.23-.07,0,0s-.44.14-.6.21-.16,0,0,0c-6.14,2.36-12.46,8.69-10.52,15.76l.1.33a6.61,6.61,0,0,0,.43,1c-3.52-7.6,4-15.23,10.93-17.36h0l-.81.28-.08,0,.76-.27.73-.2.54-.13a.45.45,0,0,1,.16,0l-1,.28c5.26-1.51,9.91-1.2,10.49,2.07.76,2.75-1.56,5-4.19,3.85l-.06,0-.1,0-.15-.06c.25.12.5.23.76.33,0,0,.07,0,0,0l-.29-.08c.23.08.34.11.3.11l-.28-.09-.19-.07a3.64,3.64,0,0,1-.63-.3,4.64,4.64,0,0,0,.44.23,3.38,3.38,0,0,0,2.27.3,3.05,3.05,0,0,0,1.75-1.14l.14-.19.05-.08c0-.09.1-.18.14-.27v0a3,3,0,0,0,.28-.91v-.07a.11.11,0,0,1,0,.08v.11s0,.07,0,.11a4.57,4.57,0,0,0,0-1.61.8.8,0,0,0,0-.19s0,0,0,0c.06.24.08.36.09.42s0,.05,0,.07a4,4,0,0,1,0,1.2l0-.23v.1s0,.12,0,.17,0,.2-.07.33a3.17,3.17,0,0,1-.68,1.28l.07-.08a3.2,3.2,0,0,0,.67-1.5.35.35,0,0,0,0-.07,3.16,3.16,0,0,1-.44,1.2,1,1,0,0,1-.15.23l-.1.14-.06.06,0,0,.11-.12a1,1,0,0,1-.13.16l-.11.11.1-.1.21-.24c-.11.13-.22.26-.34.38l-.08.07-.08.06-.14.12a3.47,3.47,0,0,1-1.24.55l-.17,0-.16,0a2.68,2.68,0,0,1-.75,0h0a5.2,5.2,0,0,1-2-.81l-.1-.06-.07,0a2.27,2.27,0,0,0-.62-.16l-.25,0H965a9,9,0,0,0-1.46.12l-.16,0h0a12.82,12.82,0,0,0-4.5,1.8,12.42,12.42,0,0,1,5.77-1.9,3.19,3.19,0,0,1,1.19.14h0a5.21,5.21,0,0,1,.57.3h0l-.09,0-.2-.12.33.19-.18-.1-.16-.09a1.77,1.77,0,0,0-.73-.25,1.93,1.93,0,0,0-.33,0h-.43l-.26,0-.34,0a13.23,13.23,0,0,0-1.4.25c-.38.09-.54.14-.38.08a10.31,10.31,0,0,1,2.81-.4,3.31,3.31,0,0,1,.55.07l.2.06.08,0,.11,0a4.66,4.66,0,0,0,2.85.89l.19,0h.11a3.21,3.21,0,0,0,2.43-2.13,5.13,5.13,0,0,0,.19-1.32h0a3.32,3.32,0,0,1-.43,2,3.25,3.25,0,0,1-2,1.48,3.33,3.33,0,0,0,2.4-2.47c0-.13.05-.29.08-.4a1,1,0,0,1,0,.17,3.34,3.34,0,0,1-2.8,2.89,4.33,4.33,0,0,1-2.79-.67l-.27-.16,0,0-.06,0,0,0-.06,0-.06,0a2.28,2.28,0,0,0-.57-.1h-.31a11.08,11.08,0,0,0-2.21.3l-.29.07-.28.08.33-.08a11.32,11.32,0,0,0-2.61,1.05,12.82,12.82,0,0,1,1.69-.76,15.31,15.31,0,0,0-4.23,2.46c-1.41,1.06-2.73,2.76-2.12,4.58a3.26,3.26,0,0,0,2.14,2.09l.31.1.16,0a24.8,24.8,0,0,0,4.94.51A16.32,16.32,0,0,1,969,884c-.25-.14-.5-.25-.76-.37a12.47,12.47,0,0,1,1.41.72l.25.16c.17.1.34.23.54.36l-.28-.21c6.14,4.24,6.74,14.5,1.86,19.92l.38-.47.45-.6.42-.63.16-.26a15,15,0,0,1-1,1.48l-.46.58-.06.06a14.36,14.36,0,0,1-1.92,1.9l0,0c-.16.12-.37.28-.52.41l-.58.41-.61.4c-.18.09-.41.23-.58.33s-.61.32-.92.45l-.32.15-.67.27c-.41.15-.9.31-1.33.43a24.11,24.11,0,0,1-9.11.58c20.67,15.77,51.34.66,51.18-25.58A32,32,0,0,0,974.48,852.5Zm-13,36.54c2.88.38,5.82,1.59,6.9,4.49,0,.1.08.23.12.33s.06.22.1.33a7.39,7.39,0,0,1-.14,4.76,7.16,7.16,0,0,1-3.93,3.66,18.18,18.18,0,0,1-3.14.69c.76-.12,1.79-.31,2.57-.51l.33-.1a7.16,7.16,0,0,0,4.2-3.82,7.62,7.62,0,0,0,0-5c-.05-.13-.09-.27-.15-.4a6,6,0,0,0-2.06-2.69l-.28-.2-.3-.18a11.65,11.65,0,0,0-4.38-1.39ZM958.94,867l-.52.23c-.12.06-.32.15-.08,0s.43-.19.58-.26.16-.06,0,0Zm30.37,2.8a1.28,1.28,0,0,1,.53-1.12,1,1,0,0,1,1.31.2,3,3,0,0,1,.38,1.06c0,.05-.2-.64-.26-.78l0,0v0a.25.25,0,0,0,0-.07,1,1,0,0,0-1.69.08,2.43,2.43,0,0,0,0,1.64c.66,2,.94,4.94,2.75,6.28,1.47,1,3.76.14,4.72-1.22,0,0,0,0,0-.11a3.83,3.83,0,0,1-1.6,1.35c-2.53,1.25-4.19-.39-4.88-2.78-.37-1.15-.63-2.4-1-3.56-.17-.58-.24-1.5.31-1.9a1,1,0,0,1,.3-.13l.16,0h-.08l-.21.06a1,1,0,0,0-.56.87,4.54,4.54,0,0,0,.31,1.85,1.1,1.1,0,0,1,0-.23.2.2,0,0,1,0,.08l.07.22-.22-.82a.13.13,0,0,1,0-.06.14.14,0,0,1,0,.07c.61,1.94.8,4.16,2.18,5.76a1.65,1.65,0,0,1-.19-.27h0c-1.16-1.57-1.4-3.59-2-5.42-.19-.6-.3-1.7.42-2a.76.76,0,0,1,1,.53c.09.28.17.57.25.86a.5.5,0,0,1,0,.12l0-.1c-.06-.24-.12-.47-.19-.7a1,1,0,0,0-.39-.65.8.8,0,0,0-1.2.58h0s0,.12,0,.16h0a3.79,3.79,0,0,0,.26,1.66,31.77,31.77,0,0,0,1,3.49,35.21,35.21,0,0,1-1-3.51,6.11,6.11,0,0,1-.26-1.2,1.89,1.89,0,0,1,.06-.67s0,.17,0,.22a.88.88,0,0,1,.21-.5,1.92,1.92,0,0,0-.14.37.73.73,0,0,1,.93-.6.6.6,0,0,1,.4.34,11.29,11.29,0,0,1,.34,1.14c.11.42.36,1.25.46,1.66a.25.25,0,0,1,0,.07c0-.19,0-.29,0-.14,0-.22,0,.13.06.19h0c0-.06,0-.08,0-.16-.08-.37-.22-.84-.28-1.1s0-.25,0-.22v0c-.06-.24-.06-.23-.09-.36s0,0,0,0h0c0,.11,0,.11.05.11l0,.06c0,.12,0,.17.06.2v-.06l0,.08v.05l.09.32a3.09,3.09,0,0,1-.1-.37h0l.06.28,0,.05v0l0,.14,0-.16c0,.13.18.65.2.73h0c.08.33.09.41.16.7l0,.08a2.79,2.79,0,0,1,.09.34v0h0a1.67,1.67,0,0,1,0,.18h0c.07.2.12.35.23.62,0,.1.07.19.1.28l0-.08c0-.05,0,0,0,0a12.23,12.23,0,0,1-.45-1.57h0l0-.11v0s0,0,0,0a.07.07,0,0,0,0,0v-.07h0v0l.21.9c0,.08,0,.12,0,.09-.1-.29-.15-.59-.23-.88l0-.11c0-.22-.1-.44-.16-.66s0-.19-.08-.29a4.54,4.54,0,0,1-.16-.67s0-.12,0,0,.2.6.28.87c-.49-1.92.21.18.3.72.1.34.18.69.27,1l0-.08c.07.23.13.43.21.63a3.24,3.24,0,0,1-.13-.41,3.17,3.17,0,0,0,1,1.71,1.27,1.27,0,0,0,.32.13,1.62,1.62,0,0,0,1-.21l0,0,.05,0a1.65,1.65,0,0,0,.57-.74,4.1,4.1,0,0,0,.22-.78h0c0,.06,0,.12,0,.18a5.07,5.07,0,0,0,.09-.54l0,.08a12.7,12.7,0,0,0-.43-3.53c-.13-.48-.26-.93-.41-1.43l.15.54-.21-.7a1.52,1.52,0,0,1,1-1.89.91.91,0,0,1,1.11.74c.07.25.14.57.18.76.54,2.31,1.27,4.77.48,7.1a9.94,9.94,0,0,0-.06-5.19c.61,2.61.71,6.29-2.1,7.65-4.34,2-5.17-3.17-6-6.2A2.76,2.76,0,0,1,989.31,869.78Zm.24,0v.15c0,.05,0,.05,0,0a.76.76,0,0,1,0-.15Zm4.56,18.2a1.32,1.32,0,0,1-.45.21,1.33,1.33,0,0,0,.3-.11l-.08,0-.1,0a1.05,1.05,0,0,1-1.37-.55.64.64,0,0,1-.06-.18l0-.06a.43.43,0,0,0,0,0h0c-.12-.44-.23-.88-.31-1.23l-.11-.42h0l0,.1c0-.12,0-.18-.07-.28v0c-.16-.59-.35-1.21-.48-1.76-.08-.23-.15-.45-.23-.72,0,.09.05.18.07.27a18.25,18.25,0,0,1-.55-2.09l-.5-1.7a1.2,1.2,0,0,1,0-.46A1.29,1.29,0,0,1,991.4,878a1.28,1.28,0,0,0-1.08.63,1.09,1.09,0,0,0-.14.86c.07.27.16.55.24.82-.07-.26-.14-.52-.22-.78-.35-1.2,1.56-2.2,2-.79.68,2.45,1.53,4.89,2.18,7.33-.81-2.42-1.5-5-2.28-7.52,0,0,0,0-.05,0l.06.12,0,.06v0c.06.21.12.44.18.64.39,1.25.8,2.66,1.13,3.94.19.66.39,1.31.59,2,0,0,0,0,0,.06-.15-.44-.29-.94-.45-1.41,0,.19,0,.13-.06,0l.1.32a.5.5,0,0,1,0,.12.36.36,0,0,1,0-.11c-.23-.8-.6-2.07-.84-2.87a.78.78,0,0,1,0,.16h0c.47,1.56,1,3.13,1.41,4.75a.11.11,0,0,1,0,0v0c-.14-.47-.27-.92-.4-1.38h0s0,0,0,0a.64.64,0,0,1,0-.07s0,0,0,0c-.25-.85-.51-1.7-.76-2.53.26.88.5,1.77.77,2.64,0,0,0-.09,0-.1.08.29.07.37,0,.07l.42,1.43a1.6,1.6,0,0,1,.06.85s0,0,0,0,.06-.13.07,0,0,0,0,0a.15.15,0,0,1,0,.07.19.19,0,0,1,0,.08h0l0-.08s0,0,0-.07a1.3,1.3,0,0,0,0-.34c0-.07,0-.13,0-.19s0-.14,0-.12v0l0-.19v0h0l0,0,0,0a.3.3,0,0,1,0,.1v.05a1,1,0,0,1,0,.17s0-.17,0-.2h0v.16l0,0v0a1.13,1.13,0,0,1,0,.26.46.46,0,0,1,0,.16h0a1.6,1.6,0,0,1,0,.21.69.69,0,0,1-.09.2l0,0-.06.09,0,0,0,0v0h0l-.08.06v0h0a1.33,1.33,0,0,1-.35.2l-.19,0a1.11,1.11,0,0,0,.91-.65.24.24,0,0,0,0-.08v0a1.06,1.06,0,0,1-.4.51h0s0,0,0,0l.11-.1a1.1,1.1,0,0,0,.36-.79v-.17l0-.29c0-.07,0-.11,0-.1s0-.06,0,0a1.54,1.54,0,0,1,.09.52.13.13,0,0,1,0-.06c0-.12,0-.21,0-.28s0-.06,0-.08v-.05s0,0,0,0a.66.66,0,0,1,.05.15,1.3,1.3,0,0,1-.55,1.46Zm-5,2.39a1.72,1.72,0,0,1-.37.22l.26-.13a1.91,1.91,0,0,1-.32.16,3.63,3.63,0,0,1-.79.25l-.14,0-.3,0a2,2,0,0,1-1.45-.36,1.88,1.88,0,0,1-.39-.35h0l.07.09-.16-.19,0-.07,0,0a4.07,4.07,0,0,1-.76-1.77.17.17,0,0,1,0-.07,3.23,3.23,0,0,1-.1-.82c0,.11,0,.21,0,.31a1.83,1.83,0,0,1,0-.33c0-.12,0-.23,0-.35a3.84,3.84,0,0,1,.56-1.58,4.18,4.18,0,0,1,2.76-2.3l.13,0a4.05,4.05,0,0,0-.75.23,4.39,4.39,0,0,0-1.5,1.17l.13-.15.15-.15a3.62,3.62,0,0,1,2.06-1c.8-.12,2,0,1.8,1.07v.07a7.36,7.36,0,0,0,.37,1.54,4.76,4.76,0,0,0,.48,1.14l0,0a6,6,0,0,1,.82.93,1.21,1.21,0,0,1-.6,1.44l0,0,0,0a1.22,1.22,0,0,1-.9-.09.57.57,0,0,1-.08.13,4.45,4.45,0,0,1-.93.89l0,0Zm-3.92.7a.57.57,0,0,0,0-.18v0c-.12-.42-.26-.82-.4-1.22a22.8,22.8,0,0,1-.74-2.78s0,0,0,0c.05.19.09.39.12.58.21.88.49,1.81.74,2.7.13.48.42,1,.21,1.49,0,0,0,0,0,0s0,0,0,0a1.21,1.21,0,0,0,0-.84c0-.08-.05-.16-.08-.24,0,.13,0,.09,0,0l.06.23a.11.11,0,0,1,0,.08l0-.08c-.18-.66-.42-1.3-.61-2v.11h0l0,.17c.19.6.42,1.2.6,1.81a1,1,0,0,1-.51,1.22h0l0,0a1,1,0,0,0,.56-.85h0s0-.05,0-.05,0,0,0,0a4.57,4.57,0,0,0-.23-.9l-.3-.86c.17.53.36,1.06.49,1.6a.65.65,0,0,1,0,.24v-.08c0,.11,0,.2,0,.19a.7.7,0,0,1,0-.16.94.94,0,0,1-1.11.88h0l.06,0s0,0,0,0,0,0,0,0l-.06,0h0l.05,0a.78.78,0,0,0,.3,0h.24s0,0,0,0h0a.49.49,0,0,0,.14,0h0l0,0h0l-.08,0h0l-.14,0s.13,0,.16,0h-.14a1,1,0,0,1-.34,0h0a.81.81,0,0,1-.3-.13l0,0a.15.15,0,0,1-.06,0l-.06-.06h0a.21.21,0,0,1,0-.06h0a.42.42,0,0,0-.06-.08.36.36,0,0,1,0-.09v0l0-.07,0-.1v0s0,0,0,0a1.33,1.33,0,0,0,0,.19.86.86,0,0,0,.37.43l.06,0,0,0,0,0a.81.81,0,0,1-.34-.32s0-.05,0,0a.9.9,0,0,0,.64.41,1.54,1.54,0,0,0,.37,0h.08s0,0,0,0a.84.84,0,0,1-.42.1,1.31,1.31,0,0,0,.28,0s.17,0,.12,0l-.12.06a1,1,0,0,1-1.16-.49l0,0,0,0v0a.8.8,0,0,1-.09-.26.43.43,0,0,1,0,.11v0a.25.25,0,0,0,0,.07v0l0-.07c-.06-.24-.11-.49-.17-.72,0-.06,0-.11,0-.17-.08-.3-.17-.6-.22-.85s0-.21-.07-.3h0a.15.15,0,0,1,0,.07c0-.08,0-.13,0-.2v0c-.1-.4-.21-.83-.27-1.2v0c0-.17-.09-.32-.13-.5,0,.06,0,.12,0,.19-.09-.31-.16-.67-.23-1a1.14,1.14,0,0,1,0-.58c.11-1,1.55-1.61,2-.51v0l0,0,0,.15a.28.28,0,0,1,0,.09c0-.06-.06-.2-.1-.28a1,1,0,0,0-1.64-.26,1,1,0,0,1,1.57.19,2,2,0,0,1,.14.41c.2.85.36,1.71.64,2.53.19.62.43,1.22.61,1.85a1.17,1.17,0,0,1-.1.95,1.05,1.05,0,0,1-.45.44l.16-.14a1.2,1.2,0,0,0,.38-1Zm-.19,0s0,.09,0,.05v-.05Zm-2.76.94a.85.85,0,0,0-1.07-.74l-.18.07c-.52.37-.79,1-1.37,1.32h0s0,0,0,.05l.09,0a2.3,2.3,0,0,0,.68-.6l.12-.15a2.8,2.8,0,0,1,.6-.59.85.85,0,0,1,1.1.34l0,.06,0,.06a.64.64,0,0,1,0,.07s0,0,0,.06a1.13,1.13,0,0,1,0,.26,2.58,2.58,0,0,1-.77,1.23,4.26,4.26,0,0,1-1.27,1,3,3,0,0,1-2.7.1l-.08,0a2.73,2.73,0,0,0,2,.22h-.16a.09.09,0,0,1,.06,0l.06,0,.08,0a3,3,0,0,1-.43.07h-.11a3.61,3.61,0,0,0,1-.23,3.85,3.85,0,0,0,1.55-1.16,3.33,3.33,0,0,0,.61-.87,1,1,0,0,1-.11.17h0a4.93,4.93,0,0,1-1.86,1.77,2.46,2.46,0,0,1-3.4-.91l0-.07,0,.06a2.12,2.12,0,0,0,1.43,1.16h0s0,0,0,0l.09,0h0a3,3,0,0,0,1.71-.2,3.73,3.73,0,0,0,1.36-1,4.71,4.71,0,0,1-.9.76,3.28,3.28,0,0,1-1.89.46l-.34,0-.08,0h0l.1,0-.24-.07c-.06,0-.09,0-.09,0l.31.07a2.38,2.38,0,0,1-1.76-2.25.12.12,0,0,1,0,0c0,.13,0,.19,0,.1v0a.14.14,0,0,1,0-.07s0-.07,0-.11h0v.11a3.83,3.83,0,0,0,.1.59s0,.11,0,.14,0,.17,0,.15l0,0c0,.17.06.15.08.24v0h0c0-.07,0-.07,0-.07l0,0a.69.69,0,0,1-.05-.13v0l0,0,0,0c0-.09,0-.15-.06-.21a.4.4,0,0,1,0,.12s0,.09,0,.13h0a.76.76,0,0,1,0-.19l0,0v0l0-.09h0a.54.54,0,0,0,0,.11,4.85,4.85,0,0,1-.11-.5h0a3.88,3.88,0,0,1,0-.48v-.32h0v-.13a3.73,3.73,0,0,1,0-.45l0-.2a.13.13,0,0,0,0,.06s0,0,0,0a5.27,5.27,0,0,0-.07,1.12.37.37,0,0,0,0,.11v0a4.85,4.85,0,0,1,0-.66c0-.07,0-.09,0-.06v.16a4,4,0,0,0,0,1h0a1.94,1.94,0,0,0,0,.2,2.86,2.86,0,0,1,.11.46s0,.08,0,0a2.54,2.54,0,0,1-.22-.6v.06l0,.18c0,.11,0,.2.06.31s0,0,0,0a.91.91,0,0,1-.09-.17,3.57,3.57,0,0,1-.18-1.65v.06a2,2,0,0,1,0-.25l0-.23c0,.1,0,.21,0,.31a7.11,7.11,0,0,1,.4-1.62l.08-.22v0a3.65,3.65,0,0,1,1-1.46,2.8,2.8,0,0,1,.53-.37l-.13.07a1.73,1.73,0,0,1,.39-.18h-.06a3.26,3.26,0,0,1,2.58-.06,1,1,0,0,1,.34,1.23,1.27,1.27,0,0,0,.09-.47,1.18,1.18,0,0,1-1.58,1.18h-.12a1,1,0,0,0-.38.05,2.49,2.49,0,0,0-.32.1h0l0,0,0,0,0,0a2.71,2.71,0,0,0-.41,1.13,3.75,3.75,0,0,0-.06,1.25,1.66,1.66,0,0,0,.06.21.67.67,0,0,0,.37.42l.09,0s.18,0,.21,0c-1.09,0-.79-1.62-.62-2.33-.15.63-.39,1.64.09,2.17a.8.8,0,0,0,.61.21c.93,0,1.27-.81,1.86-1.38a.64.64,0,0,1,.19-.13.9.9,0,0,1,1.22.51c.16.57-.25,1.09-.59,1.5a5.45,5.45,0,0,1-1.26,1.14l-.06,0-.07,0-.37.16a3,3,0,0,1-2.19.08,2.21,2.21,0,0,1-1.18-1h0a2.7,2.7,0,0,0,3.59.8,4.08,4.08,0,0,0,1.24-1,2.5,2.5,0,0,0,.88-1.54Zm-4,2.65h.1s0,0,0,0h-.1s0,0,0,0Zm-1.5-9.16,0-.05a4.34,4.34,0,0,0,.82-2.49.09.09,0,0,1,0-.05V883a4.32,4.32,0,0,1-.83,2.49l0,0Zm4.77-2.25a.21.21,0,0,1,.08-.06h0a1.19,1.19,0,0,1,.54-.29h0a.76.76,0,0,1,.26-.06h-.1a.84.84,0,0,1,.54.06.51.51,0,0,1,.21.15,1.06,1.06,0,0,1,.45,1.08,0,0,0,0,1,0,0s0,0,0,0a1.11,1.11,0,0,0-.19-.81,1.08,1.08,0,0,1,.17.68,1.13,1.13,0,0,1,0,.18c-.2,1-1.42,1.59-2.1.72-.06-.09-.06-.16,0,0a1.18,1.18,0,0,0,2-.52h0v0a1,1,0,0,1-.11.23,1.08,1.08,0,0,1-1,.64,1,1,0,0,1-.63-.22h0a.93.93,0,0,0,.43.19c-.05,0,0,0,0,0l-.09,0s0,0,0,0a.78.78,0,0,0,.4,0,1.12,1.12,0,0,0,.42-.18h-.05l-.06,0a.81.81,0,0,1-1.17-.29s0,0,0,0a.83.83,0,0,0,.28.31h0s0,0,0,0a.82.82,0,0,0,.73,0,.8.8,0,0,1-.66,0l-.07,0h0c-.08,0-.06-.09,0,0a.66.66,0,0,1-.27-.3,1.72,1.72,0,0,1-.07-.21h0s0,0,0,0,0,0,0,0h0v0s0,.12,0,.15,0,0,0,0h0v.06h0l0,0h0a.17.17,0,0,1,0-.05s0,0,0,0v0h0v0h0v0l0-.12h0s0-.08,0-.12h0v-.06h0v0h0a.49.49,0,0,0,0-.11.09.09,0,0,0,0-.05v0h0a.93.93,0,0,0,0,.29v0h0a1,1,0,0,1,0-.17h0v0a1,1,0,0,0,0,.24s0,.17,0,.17,0,0,0,0a.25.25,0,0,1-.08-.14v0c0,.1,0,.21-.06.1a.5.5,0,0,1-.08-.2.53.53,0,0,1,0-.25h0a.66.66,0,0,1,0-.14.29.29,0,0,1,0,.09,1.19,1.19,0,0,1,.15-.41l0-.08h0a1,1,0,0,1,.25-.33.52.52,0,0,1,.1-.11h0Zm2,1a1.46,1.46,0,0,1-.48.76,1.68,1.68,0,0,0,.48-.78s0,0,0,0Zm-1.9,7a1,1,0,0,1,.52.33.22.22,0,0,1,.05.08.94.94,0,0,0-1.05-.39l-.07,0,0,0c-.77.45-1,1.39-2,1.5h0a2.25,2.25,0,0,0,.35-.09l.18-.07a4.23,4.23,0,0,0,1-1,1.41,1.41,0,0,1,.49-.38,1,1,0,0,1,.53,0Zm.21-6.22h0Zm2.19,1.51s0,0,0,0c.15.61.25,1.21.41,1.82v0c-.16-.61-.26-1.22-.41-1.83,0,0,0,0,0,0Zm6-2.13a4,4,0,0,0,.09.59V885s0,0,0-.06a3.43,3.43,0,0,1-.08-.56v0h0a.9.9,0,0,0-.31-.95,2.26,2.26,0,0,0-1.45-.22h0l.55,0c.72,0,1.38.37,1.21,1.18v0Zm1.5-6.35a.92.92,0,0,1,.67.66c.13.48.43,1.54.57,2v0a.08.08,0,0,1,0-.05c-.14-.49-.44-1.54-.57-2a.91.91,0,0,0-.59-.64l-.07,0Zm2.17,6.7a.14.14,0,0,1,0-.07s0,0,0,0a.19.19,0,0,1,0,.07s0,0,0,0Zm.51-7.17a2.75,2.75,0,0,1-1.5-.16l-.1,0,.12,0a4,4,0,0,0,4.45-1.8c.07-.11.12-.21.18-.32s.11-.23.15-.33a.36.36,0,0,1,0-.09s0,.08,0,.11-.1.23-.15.33a4.23,4.23,0,0,1-3.16,2.26Zm-5-3.44c-1.28-.47-2.58.26-3.75.73h0a1.45,1.45,0,0,1-.3.06h-.07a.15.15,0,0,1-.18-.12v-.09a.5.5,0,0,1,0-.12,1.92,1.92,0,0,1,.32-.53l.06-.07a1.71,1.71,0,0,0-.39.74v.05a.19.19,0,0,0,0,.08.26.26,0,0,0,.24.05,1.59,1.59,0,0,0,.3-.06h0c1.13-.46,2.38-1.16,3.63-.77l.11.05Zm-6.44.46a5.27,5.27,0,0,1,2.47-3.32,4,4,0,0,1,3.08-.51l.06,0a.69.69,0,0,1,.21.24,1.28,1.28,0,0,1-.5,1.51c-.53.32-1.19.3-1.74.57a3.49,3.49,0,0,0-.94.7,3.09,3.09,0,0,1,1-.75,14.9,14.9,0,0,0,1.64-.52,1.27,1.27,0,0,0,.52-1.5.72.72,0,0,0-.47-.36,2.16,2.16,0,0,0-.76,0c.42,0,1,0,1.22.41a1.25,1.25,0,0,1-.46,1.43c-.56.35-1.26.31-1.84.61a3.35,3.35,0,0,0-1.35,1.34,1.12,1.12,0,0,0-.08.26v.1a.13.13,0,0,0,0,.08.22.22,0,0,0,.14.08,1.91,1.91,0,0,0,.47-.07l1.41-.59c1.54-.64,3.18-.3,3.71,1.43a2.83,2.83,0,0,1,.16,1c-.13,2.09-2.44,3.85-4.26,4.55a3.41,3.41,0,0,1-1.84.23,1.76,1.76,0,0,1-1.09-.59s0,0,0,0l.11.09a2.14,2.14,0,0,0,1,.47h.13a5,5,0,0,0,2.88-.87c1.5-.9,3.31-2.62,2.92-4.54a2.1,2.1,0,0,0-.06-.24,2.32,2.32,0,0,0-2.88-1.78,13.29,13.29,0,0,0-2.21.81h0a1.7,1.7,0,0,1-.31.06c-.16,0-.36,0-.38-.19,0,0,0,0,0-.08a.39.39,0,0,0,0,.15.16.16,0,0,0,.08.1.22.22,0,0,0,.16.05,1,1,0,0,0,.34,0l.1,0,1.41-.59c1.57-.71,3.33-.21,3.72,1.61l0,.18a4.3,4.3,0,0,1,0,.62c-.15,2.22-3.19,4.42-5.27,4.69l.07,0a7,7,0,0,0,2.89-1.32,1.14,1.14,0,0,1-.23.13,2,2,0,0,1,.27-.22,7.16,7.16,0,0,1-.83.53,1.7,1.7,0,0,1,.22-.15c1.78-1.05,3.68-3.27,2.27-5.34a1.77,1.77,0,0,1,.15.31h0a3.59,3.59,0,0,1,.2.51c.63,2.16-1.55,4-3.27,4.89a3.89,3.89,0,0,1-2.49.53,1.53,1.53,0,0,1-1.09-.71.56.56,0,0,1-.05-.08v0l.06.1c.59,1,2,.87,2.88.49h0s0,0,0,0l.16-.06h0c1.58-.65,3.56-2.15,3.89-3.92a2.7,2.7,0,0,1-.19.63l-.07.15a6.94,6.94,0,0,1-3.22,2.93,4.71,4.71,0,0,1-.65.28l.22-.09a2.55,2.55,0,0,1-.56.17l.41-.16a3.21,3.21,0,0,1-1.66.24,1.47,1.47,0,0,1-1.19-.79,1.09,1.09,0,0,1-.07-.84,1,1,0,0,1,.52-.59.76.76,0,0,1,.16-.06l.08,0-.22,0s0,0,0,0l.07,0-.08,0a.29.29,0,0,1,.13,0l.09,0h-.1a1.15,1.15,0,0,0-.8.85s0,.08,0,.12a1.14,1.14,0,0,0,0,.26s0,0,0,0V880a1.57,1.57,0,0,0,.1.44.18.18,0,0,0,0,.05v0c0-.08,0-.1-.06-.13a1,1,0,0,1-.09-.33v.06a.82.82,0,0,0,0-.1v-.07a1.13,1.13,0,0,1,.06-.41,1.91,1.91,0,0,0-.06.48v0a1.1,1.1,0,0,1,0-.32.09.09,0,0,1,0-.05s0,0,0-.08a.15.15,0,0,1,0-.07h0l0,0a.87.87,0,0,1,.07-.17.87.87,0,0,0-.07.17v0a1.21,1.21,0,0,1,.58-.75h0a.89.89,0,0,1,1,0l.12.09s.07.06.08.09l0,0,.06,0h0l0,0,0,0,.05,0h0a1.08,1.08,0,0,0,.59,0l.28-.09-.08,0h0a.88.88,0,0,1-1-.14,1.23,1.23,0,0,0-.48-.32.77.77,0,0,0-.27,0h0a1.1,1.1,0,0,1,.79.44l.06,0,0,0,.09,0h.05s0,0,0,0a.6.6,0,0,1-.25-.13l-.07-.07a1.81,1.81,0,0,0-.21-.18.94.94,0,0,0-.28-.15,1.06,1.06,0,0,0-1,.29,1.29,1.29,0,0,0-.38,1c0,.08,0,.23,0,.24s0,.15,0,0a1.29,1.29,0,0,1,.26-1.21,1.46,1.46,0,0,0-.34.72c0,.11,0,.22,0,.34s0,0,0,0a1.38,1.38,0,0,1,.81-1.5,1.17,1.17,0,0,1,1.35.31l0,0,0,0,0,0a.34.34,0,0,0,.15.06h0a.86.86,0,0,0,.23,0,1.32,1.32,0,0,0,.26,0,1,1,0,0,1-.35,0,4,4,0,0,0,2.27-1.27h0c.3-.32.69-.74.54-1.21l0,0a.17.17,0,0,1,0-.05.55.55,0,0,0-.17-.2c-.16-.09-.31,0-.52,0l-.41.13a1.39,1.39,0,0,1,.19-.06,5.49,5.49,0,0,0-.57.2l.09,0a7.19,7.19,0,0,1-1.9.63c-1.49.21-2.39-.47-2.36-2a1,1,0,0,1,0-.17l0-.12a1,1,0,0,1,0-.24,3.74,3.74,0,0,0-.09.66,3.37,3.37,0,0,1,.09-.71Zm4,6.36.14-.07s0,0,0,0l-.15.07Zm-8.59-3.41a.85.85,0,0,1,.42.11h0a.47.47,0,0,1,.1.1v0h0l.12-.19a4.69,4.69,0,0,1,1.52-1.35l.16-.08.12-.05.12,0,.14,0h.37a1.11,1.11,0,0,1,.26.07l0,0a.82.82,0,0,1,.2.12,2.18,2.18,0,0,1,.73,1.37,1.25,1.25,0,0,1-.09-.24,2.73,2.73,0,0,0-.26-.61.41.41,0,0,0-.07-.11l-.07-.11-.06-.07a1.06,1.06,0,0,0-.67-.38c-.9-.1-2.12,1-2.54,1.77h0a.76.76,0,0,0-.11-.14h0a.65.65,0,0,0-.23-.09.9.9,0,0,0-.46,0l-.09,0a1.1,1.1,0,0,0-.68.92,2,2,0,0,0,.09.6c.11.38.21.78.33,1.16,0,0,0,0,0,.06-.09-.31-.18-.62-.26-.93a3.22,3.22,0,0,1-.19-.87,1.06,1.06,0,0,1,.71-.94.79.79,0,0,1,.67,0l.06,0h0a.52.52,0,0,1,.14.19v0l.11-.16.05-.06v0a4.84,4.84,0,0,1,1.61-1.34l.15-.06a1.16,1.16,0,0,1,.49-.1,1,1,0,0,1,.35.07l.08,0,.15.1a.68.68,0,0,1,.12.12l.06.06a2.43,2.43,0,0,1,.14.2,1.06,1.06,0,0,0-1.37-.48l-.1.05-.19.1c.21-.09.14,0,0,.07l.22-.11a.61.61,0,0,1,.28-.09,4.15,4.15,0,0,0-2.13,1.83h0a.72.72,0,0,0-.17-.22l0,0,0,0,0,0-.14-.05a.42.42,0,0,1,.17.1h0a.52.52,0,0,1,.17.19l0,0,0,.06h0a4.3,4.3,0,0,1,1.9-1.78c.69-.35,1.26.14,1.48.8.07.18.14.44.2.63a.64.64,0,0,1,0,.07.14.14,0,0,1,0-.06,2.37,2.37,0,0,0-.78-1.43h0s0,0,0,0l-.08,0s0,0,0,0c-.8-.37-2.07.83-2.49,1.45a4.15,4.15,0,0,1,1.55-1.33,1.16,1.16,0,0,1,.68-.16.8.8,0,0,1,.3.09l.06,0-.11-.06.06,0,0,0,0,0a.3.3,0,0,1,.08.08v0l-.16-.1a1.86,1.86,0,0,1,.61,1l.12.39a1.24,1.24,0,0,1,0,.69.88.88,0,0,1-.11.24.13.13,0,0,1,0,0l.08-.08s0,0,0,0l0,0,0,.06-.06.09h0l.07-.08a1,1,0,0,0,.16-.44,1,1,0,0,0,0-.22c0-.07,0-.18,0-.14v0a.88.88,0,0,0,0-.17v-.09h0l0,.07,0,0a.58.58,0,0,1,0,.14v0a.18.18,0,0,0,0,0v0a.74.74,0,0,1,0,.21s0,0,0-.13V878a1.15,1.15,0,0,1,0,.19v0s0,0,0,0h0v0a.38.38,0,0,1,0,.08h0a.44.44,0,0,0,0-.09h0a1.52,1.52,0,0,1-.1.48h0a1,1,0,0,1-.31.38l0,0a.88.88,0,0,1-.21.12h0l-.11,0h0l-.1,0-.12,0h-.17l-.12,0a.65.65,0,0,1-.23-.13l.06,0s0,0,0,0a.76.76,0,0,0,.69,0l.2-.08a1.73,1.73,0,0,0,.28-.19l.06-.08,0,0,0,0a1.29,1.29,0,0,1-.52.33l-.12,0,.08,0a1.13,1.13,0,0,0,.73-.67l0-.07,0-.19c0-.27,0-.48,0-.46s0-.09,0,0a1.38,1.38,0,0,1,0,.64,2.76,2.76,0,0,0,.07-.56s0,0,0,0a1.32,1.32,0,0,1,0,.56,1.3,1.3,0,0,1-1,1h.07a1.06,1.06,0,0,1-.68,0,1,1,0,0,0,.3.08h.17a1,1,0,0,1-1-.84h0l0-.06a2.82,2.82,0,0,0-.51.63c-.07.13-.13.26-.19.4h0a.36.36,0,0,0,0-.09c0,.12-.07.17-.1.28l0,0,0,.11a1,1,0,0,0,0,.17v0h0c.13.48.29,1,.41,1.48.09.25.17.5.26.8l-.08-.3c.09.27.17.55.26.84v0a.08.08,0,0,0,0,0,1.24,1.24,0,0,1-1,1.48.91.91,0,0,1-1-.67c-.27-.89-.56-1.86-.82-2.74a.74.74,0,0,1,0-.14s0,0,0,.1l.81,2.64c-.45-1.67-1-3.35-1.42-5a1.1,1.1,0,0,1,.67-1.13,1.19,1.19,0,0,1,.42-.11Zm3.18-1.25h-.09s0,0,0,0h.09Zm-4.28,2a1.13,1.13,0,0,1,.45-.6l.06,0a.18.18,0,0,1-.07.05c-.62.47-.52,1-.32,1.69.14.49.26,1,.41,1.47a.11.11,0,0,1,0,0l0-.06c-.13-.43-.29-1-.41-1.47A1.94,1.94,0,0,1,977.13,878.28Zm-2,8.32a2.55,2.55,0,0,1-2.87-1.08l0-.09a.56.56,0,0,0-.05-.08l0-.1s.06.07.13.19a2.57,2.57,0,0,0,3.38.91,3.61,3.61,0,0,0,1.94-2.94s0,0,0-.06a4.38,4.38,0,0,1-.17.8c-.43,2.05-3.11,3.33-4.71,1.7.09.07.2.18.3.25a2.52,2.52,0,0,0,1,.42c-.18-.06-.11-.06,0,0a1.47,1.47,0,0,1-.42-.13l.12,0a2.63,2.63,0,0,0,2.6-.66l-.12.08h0l-.19.14a2.41,2.41,0,0,1-3.74-.88l0,0,0,0a2.53,2.53,0,0,0,.86,1h0s0,0,0,0l.06,0s0,0,0,0a2.3,2.3,0,0,0,2.36.08,2.59,2.59,0,0,1-1.09.28,2.33,2.33,0,0,1-1.09-.28l0,0-.16-.1,0,0h0l.06,0c-.12-.08-.2-.16-.19-.17l.18.12a3.07,3.07,0,0,1-1.14-1.8s0,0,0,0,0,.13,0,.07,0,.05,0,0a.25.25,0,0,0,0-.07h0s0,0,0,.08a.18.18,0,0,1,0,.06c0,.13,0,.16.08.28l0,.07,0,.1c0,.12,0,.12,0,.11v0l0,.12v.07h0l0,0,0,0,0-.09v0a.86.86,0,0,1,0-.15s0,0,0,.08l0,.09h0l0-.13v0a.18.18,0,0,1,0-.06h0l0,.07h0l-.07-.22a1.11,1.11,0,0,0,0-.13h0c0-.17,0-.17-.07-.34v0a.86.86,0,0,1,0-.17h0s0-.06,0-.08h0c0-.06,0-.13,0-.33v-.1s0,0,0,0a3.25,3.25,0,0,0,.07.82.14.14,0,0,0,0,.06v0a3.93,3.93,0,0,1-.06-.48s0-.06,0,0l0,.12a3.35,3.35,0,0,0,.13.69l.09.26a1.08,1.08,0,0,1,0,.19s0,.06,0,0a2.26,2.26,0,0,1-.19-.42c0,.13.08.26.1.39s0,0-.1-.11a2.6,2.6,0,0,1-.23-.68l0-.16,0-.31v0c0-.12,0-.23,0-.35v.23a3.88,3.88,0,0,1,.09-1,.83.83,0,0,1,0-.13,1.55,1.55,0,0,1,0-.23h0v-.05a4.57,4.57,0,0,1,.3-.88c0-.08.09-.17.13-.24a3,3,0,0,1,.24-.38h0l-.06.07c.06-.09.11-.14.18-.23l0,0a3.71,3.71,0,0,1,1.42-1.12,3.07,3.07,0,0,1,.31-.17,2.64,2.64,0,0,1,.4-.12l-.29.07a2,2,0,0,1,2.13.48,4.25,4.25,0,0,1,1.31,3,.49.49,0,0,1,0,.12,4.79,4.79,0,0,0-.69-2.35,4.79,4.79,0,0,1,.5,3.53A3.48,3.48,0,0,1,975.12,886.6Zm-1.86-.45.06,0s0,0,0,0l-.06,0Zm32.1.1.11.23c-.54.32-1.43.59-2,.91l.09.18c.58-.2,1.4-.65,2-.91-.25.19-.23.25-.17.37a20.63,20.63,0,0,0-2.5,1.22l.84-.39c-.42.56-1.93,1-2.75,1.42-2.69,1.48-6.2,2.79-8.93,4.26-3.25,1.79-6.9,3.48-10.27,5,0-.12.14-.43-.16-.36-1.21.35-1.32.11-1.43-.13s.85-.39.51-.38c.84-.38,2.22-1.09,1.32-.82-.33,0-1.4.65-1.76.6s.11-.48-.25-.53l-1.12.52c-.34,0,.12-.49-.16-.36a27.46,27.46,0,0,0-3.12,1.37c-.05-.12-.39-.11.15-.43,9.76-4.65,19.76-9.55,29.66-13.91,1.15-.45.42.17-.34.74.25-.19.33,0,.59-.2.08.17-.35.73-1.44,1.31l.84-.39c.31-.07.08.17.14.29-.29.13-.57.26-.54.32l.11.24,1.12-.52c-.28.13-.56.26-.53.32Z"
    transform="translate(-942.46 -852.5)" />
</svg>